M48
; DRILL file {KiCad 9.0.7} date 2026-04-12T14:07:33+0530
; FORMAT={-:-/ absolute / metric / decimal}
; #@! TF.CreationDate,2026-04-12T14:07:33+05:30
; #@! TF.GenerationSoftware,Kicad,Pcbnew,9.0.7
; #@! TF.FileFunction,Plated,1,2,PTH
FMAT,2
METRIC
; #@! TA.AperFunction,Plated,PTH,ViaDrill
T1C0.300
; #@! TA.AperFunction,Plated,PTH,ComponentDrill
T2C0.800
; #@! TA.AperFunction,Plated,PTH,ComponentDrill
T3C1.000
; #@! TA.AperFunction,Plated,PTH,ComponentDrill
T4C1.100
; #@! TA.AperFunction,Plated,PTH,ComponentDrill
T5C1.300
; #@! TA.AperFunction,Plated,PTH,ComponentDrill
T6C1.320
; #@! TA.AperFunction,Plated,PTH,ComponentDrill
T7C1.500
%
G90
G05
T1
X80.0Y-71.5
X97.0Y-132.0
X100.0Y-107.0
X102.5Y-94.0
X104.5Y-96.0
X109.5Y-84.0
X112.0Y-101.5
X114.174Y-69.326
X114.6Y-90.5
X115.5Y-89.5
X116.0Y-70.5
X119.0Y-95.5
X193.0Y-83.0
X196.5Y-84.0
X197.0Y-87.0
X199.0Y-86.5
T2
X90.18Y-124.56
X90.33Y-67.26
X92.18Y-124.56
X92.33Y-67.26
X94.18Y-124.56
X94.33Y-67.26
T3
X72.21Y-76.52
X72.21Y-91.76
X74.75Y-76.52
X74.75Y-91.76
X77.29Y-76.52
X77.29Y-91.76
X79.83Y-76.52
X79.83Y-91.76
X82.37Y-76.52
X82.37Y-91.76
X84.91Y-76.52
X84.91Y-91.76
X87.45Y-76.52
X87.45Y-91.76
X89.99Y-76.52
X89.99Y-91.76
X92.53Y-76.52
X92.53Y-91.76
X95.07Y-76.52
X95.07Y-91.76
X97.61Y-76.52
X97.61Y-91.76
X100.15Y-76.52
X100.15Y-91.76
X102.69Y-76.52
X102.69Y-91.76
X105.23Y-76.52
X105.23Y-91.76
X107.77Y-76.52
X107.77Y-91.76
X210.0Y-84.61
X210.0Y-87.15
X210.0Y-89.69
X210.0Y-92.23
X210.0Y-94.77
X210.0Y-97.31
X210.0Y-99.85
X210.0Y-102.39
T4
X66.1Y-111.0
X66.1Y-113.5
X66.2Y-99.7
X66.2Y-102.2
X85.0Y-99.7
X85.0Y-102.2
X85.0Y-110.9
X85.0Y-113.5
T5
X69.335Y-123.677
X69.385Y-65.977
X74.415Y-123.677
X74.465Y-65.977
X186.832Y-90.615
X186.832Y-95.695
T6
X92.47Y-99.36
X92.47Y-114.6
X95.01Y-99.36
X95.01Y-114.6
X97.55Y-99.36
X97.55Y-114.6
X100.09Y-99.36
X100.09Y-114.6
X102.63Y-99.36
X102.63Y-114.6
X105.17Y-99.36
X105.17Y-114.6
X107.71Y-99.36
X107.71Y-114.6
X110.25Y-99.36
X110.25Y-114.6
T7
X88.08Y-124.56
X88.23Y-67.26
X96.28Y-124.56
X96.43Y-67.26
M30
